<svg xmlns="http://www.w3.org/2000/svg" viewBox="0 0 160 265" enable-background="new 0 0 160 265"><g><path opacity=".5" fill="#fff" d="M67.8 148.6l-51.2 61.4c-7.6 9.1-7 22.6 1.4 31l6.2 6.2c9.4 9.4 24.7 8.9 33.5-1l18.5-21c7-13.8 10.9-29.4 10.9-45.9 0-20.4-6-39.3-16.2-55.2 3.8 7.8 2.7 17.5-3.1 24.5z"/><path fill="#fff" d="M143.2 149.2c7.6-8.6 7.7-21.5.2-30.2l-85.8-100c-8.7-10.1-24.2-10.7-33.7-1.3l-6.2 6.2c-8.3 8.3-9 21.5-1.7 30.6l52 65c1.2 1.5 2.2 3.1 2.9 4.8-.1-.1-.1-.2-.1-.3 10.3 15.9 16.2 34.9 16.2 55.2 0 16.5-3.9 32.1-10.9 45.9l67.1-75.9z"/></g></svg>